# xmcd CD database file
#
# Track frame offsets:
#	150
#	9450
#	25242
#	39129
#	49857
#	62862
#	73854
#	93422
#	103727
#	116995
#	129262
#	141919
#
# Disc length: 2036 seconds
#
# Revision: 0
# Processed by: cddbd v1.5.2PL0 Copyright (c) Steve Scherf et al.
# Submitted via: CDex 1.50beta10
#
DISCID=a707f20c
DTITLE=Cactus Martens - My Favourites
DYEAR=2007
DGENRE=Country
TTITLE0=Kiss An Angel Good Morning
TTITLE1=Twinkle Twinkle Lucky Star
TTITLE2=Blackboard Of My Heart
TTITLE3=Abilene
TTITLE4=Oakie From Muskogee
TTITLE5=Love Letters In The Sand
TTITLE6=Old Dogs Children and Watermelon Wine
TTITLE7=Is Anybody Goin' To San Antone
TTITLE8=I Love You Because
TTITLE9=Oh Lonesome Me
TTITLE10=Wild Side Of Life
TTITLE11=Six Days On The Road
EXTD=YEAR: 2007
EXTT0=
EXTT1=
EXTT2=
EXTT3=
EXTT4=
EXTT5=
EXTT6=
EXTT7=
EXTT8=
EXTT9=
EXTT10=
EXTT11=
PLAYORDER=
